<svg xmlns="http://www.w3.org/2000/svg" viewBox="0 0 24 24"><path d="M 3.65 3.88 L 2.35 5.15 L 19.85 22.62 L 21.12 21.35 Z M 9.922 8.912 C 10.656 6.786 10.494 6.177 9.4454 4.747 C 9.0353 4.3368 8.5403 4.0681 8.0242 3.9055 L 8.012 6.998 M 5.915 4.92 L 5.917 3.9055 C 5.596 3.954 5.374 4.034 5.166 4.223 Z M 4.496 4.742 C 3.131 6.1117 3.131 8.332 4.4957 9.6967 C 4.7856 9.9866 5.1179 10.2058 5.4644 10.3685 L 5.4644 24 L 8.4626 24 L 8.4767 10.3685 C 8.8232 10.2058 9.1555 9.9866 9.4454 9.6967 Z M 16.0175 24 L 19.0175 24 L 18.96 19.923 L 16.004 17.208 Z M 19.016 18.024 L 19.1022 9.9987 L 20.1063 9.9987 L 20.1063 8.0047 L 23.0175 7.9531 C 23.0175 6.2985 21.674 4.955 20.0193 4.955 L 15.013 4.955 L 15.013 6.949 L 13.019 4.955 L 12.0149 4.955 L 12.0149 9.9613 L 13.019 9.9613 L 15.0201 7.9602 L 15.0201 9.9542 L 16.0242 9.9542 L 16.008 14.969 Z"/></svg>
