<svg id="vector" xmlns="http://www.w3.org/2000/svg" viewBox="0 0 15 15"><path fill="#000" d="M9.6797,2.6C9.6797,2.6 9.1235,2.5835 8.9016,2.8C8.6882,3.0081 8.6,3.1671 8.6,3.6L4.8797,3.6L5.4375,5.5258C5.4389,5.5287 5.4414,5.5315 5.443,5.5344C5.5367,5.7973 5.7818,5.9867 6.0742,5.9977C6.0754,5.9982 6.0797,6 6.0797,6L8.6797,6L8.6797,6.0797C8.6797,6.0797 8.68,6.2002 8.6,6.3602C8.52,6.5202 8.4802,6.6 8.1602,6.6L5.5602,6.6C5.1602,6.6 5.1602,7.2 5.5602,7.2L6.0398,7.2L6.0797,7.2L8.0398,7.2L8.0797,7.2L8.1203,7.2C8.6003,7.2 8.9597,6.9198 9.0797,6.6398C9.1997,6.3598 9.2,6.1203 9.2,6.1203L9.2,6L9.2,3.6C9.2,3.3906 9.2914,3.2 9.4797,3.2L9.7,3.2C9.8657,3.2 10,3.0657 10,2.9C10,2.7343 9.8657,2.6 9.7,2.6L9.6797,2.6zM8.0797,7.2C7.8397,7.2 7.6797,7.36 7.6797,7.6C7.6797,7.84 7.8397,8 8.0797,8C8.3197,8 8.4797,7.84 8.4797,7.6C8.4797,7.36 8.3197,7.2 8.0797,7.2zM6.0797,7.2C5.8397,7.2 5.6797,7.36 5.6797,7.6C5.6797,7.84 5.8397,8 6.0797,8C6.3197,8 6.4797,7.84 6.4797,7.6C6.4797,7.36 6.3197,7.2 6.0797,7.2z" id="path_0"/><path fill="#000" d="M7.5,14.941l-0.4,-0.495c-0.973,-1.189 -4.9,-6.556 -4.9,-9.16A5.066,5.066 0,0 1,7.036 0q0.222,-0.01 0.445,0a5.066,5.066 0,0 1,5.286 4.836q0.01,0.225 0,0.45c0,2.213 -2.669,6.111 -4.678,8.851ZM7.481,0.986a4.077,4.077 0,0 0,-4.3 4.3c0,1.832 2.759,6.038 4.286,8.034 1.25,-1.71 4.315,-5.989 4.315,-8.034a4.077,4.077 0,0 0,-4.3 -4.3Z" id="path_1"/></svg>