<svg id="vector" xmlns="http://www.w3.org/2000/svg" viewBox="0 0 15 15"><path fill="#000" d="M7.515,3.25C5.295,3.25 4.25,5.5 4.25,5.5S5.295,7.75 7.515,7.75S10.75,5.5 10.75,5.5S9.75,3.25 7.515,3.25zM9.25,5.25l0,0.75C9.25,6.1381 9.1381,6.25 9,6.25S8.75,6.1381 8.75,6L8.75,5.75L7.75,5.75l0,0.25C7.75,6.1381 7.6381,6.25 7.5,6.25S7.25,6.1381 7.25,6L7.25,5.75L6.25,5.75l0,0.25C6.25,6.1381 6.1381,6.25 6,6.25S5.75,6.1381 5.75,6l0,-1C5.75,4.8619 5.8619,4.75 6,4.75S6.25,4.8619 6.25,5L6.25,5.25l1,0L7.25,5C7.25,4.8619 7.3619,4.75 7.5,4.75S7.75,4.8619 7.75,5L7.75,5.25l1,0L8.75,5C8.75,4.8619 8.8619,4.75 9,4.75S9.25,4.8619 9.25,5L9.25,5.25z" id="path_0"/><path fill="#000" d="M7.5,14.941l-0.4,-0.495c-0.973,-1.189 -4.9,-6.556 -4.9,-9.16A5.066,5.066 0,0 1,7.036 0q0.222,-0.01 0.445,0a5.066,5.066 0,0 1,5.286 4.836q0.01,0.225 0,0.45c0,2.213 -2.669,6.111 -4.678,8.851ZM7.481,0.986a4.077,4.077 0,0 0,-4.3 4.3c0,1.832 2.759,6.038 4.286,8.034 1.25,-1.71 4.315,-5.989 4.315,-8.034a4.077,4.077 0,0 0,-4.3 -4.3Z" id="path_1"/></svg>