<svg id="vector" xmlns="http://www.w3.org/2000/svg" viewBox="0 0 15 15"><path fill="#000" d="M6,2C5.4546,2 4.8,2.2973 4.8,3.0984l0,2.1812L4.8,6.8c0,0 0,0.4 0.4,0.4l0,0.4c0,0 0,0.4 0.4,0.4s0.4,-0.4 0.4,-0.4l0,-0.4l2.8,0l0,0.4c0,0 0,0.4 0.4,0.4s0.4,-0.4 0.4,-0.4l0,-0.4c0,0 0.4,0 0.4,-0.4L10,3.0984C10,2.2802 9.5056,2 8.9602,2L6,2zM6.1,2.6l2.6,0C8.7554,2.6 8.8,2.6446 8.8,2.7S8.7554,2.8 8.7,2.8l-2.6,0C6.0446,2.8 6,2.7554 6,2.7S6.0446,2.6 6.1,2.6zM5.6,3.2l3.6,0c0.4,0 0.4,0.3867 0.4,0.3867L9.6,4.8c0,0 0,0.4 -0.4,0.4L5.6,5.2C5.2,5.2 5.2,4.8 5.2,4.8L5.2,3.6C5.2,3.6 5.2,3.2 5.6,3.2zM5.6,6c0.2209,0 0.4,0.1791 0.4,0.4s-0.1791,0.4 -0.4,0.4s-0.4,-0.1791 -0.4,-0.4S5.3791,6 5.6,6zM9.2,6c0.2209,0 0.4,0.1791 0.4,0.4s-0.1791,0.4 -0.4,0.4s-0.4,-0.1791 -0.4,-0.4S8.9791,6 9.2,6z" id="path_0"/><path fill="#000" d="M7.5,14.941l-0.4,-0.495c-0.973,-1.189 -4.9,-6.556 -4.9,-9.16A5.066,5.066 0,0 1,7.036 0q0.222,-0.01 0.445,0a5.066,5.066 0,0 1,5.286 4.836q0.01,0.225 0,0.45c0,2.213 -2.669,6.111 -4.678,8.851ZM7.481,0.986a4.077,4.077 0,0 0,-4.3 4.3c0,1.832 2.759,6.038 4.286,8.034 1.25,-1.71 4.315,-5.989 4.315,-8.034a4.077,4.077 0,0 0,-4.3 -4.3Z" id="path_1"/></svg>