<svg id="vector" xmlns="http://www.w3.org/2000/svg" viewBox="0 0 15 15"><path fill="#000" d="M5.8,3.2C5.4686,3.2 5.2,2.9314 5.2,2.6S5.4686,2 5.8,2S6.4,2.2686 6.4,2.6S6.1314,3.2 5.8,3.2zM9.6,2.6C9.6,2.2686 9.3314,2 9,2S8.4,2.2686 8.4,2.6S8.6686,3.2 9,3.2S9.6,2.9314 9.6,2.6zM7.544,4.656L7.544,4.656L6.552,3.66l0,0C6.5119,3.6197 6.4568,3.598 6.4,3.6L5.2,3.6C5.1479,3.6001 5.0978,3.6201 5.06,3.656l0,0L4.056,4.652c-0.0904,0.0708 -0.1064,0.2016 -0.0356,0.292s0.2016,0.1064 0.292,0.0356C4.3257,4.9692 4.3376,4.9572 4.348,4.944L5.2,4.08L4.4,6.4l0.8,0l0,1.332c-0.003,0.0199 -0.003,0.0401 0,0.06c0.0222,0.1104 0.1298,0.182 0.2402,0.1598C5.5208,7.9356 5.5838,7.8726 5.6,7.792l0,0L5.6,6.4l0.4,0l0,1.4l0,0c0.0222,0.1104 0.1298,0.182 0.2402,0.1598C6.3208,7.9436 6.3838,7.8806 6.4,7.8c0.003,-0.0199 0.003,-0.0401 0,-0.06L6.4,6.4l0.8,0L6.4,4.08l0.856,0.864l0,0c0.0387,0.0432 0.094,0.068 0.152,0.068C7.5182,5.0035 7.6024,4.9104 7.6,4.8C7.6009,4.7465 7.5808,4.6948 7.544,4.656zM9.8,3.6l-1.6,0C8.0896,3.6 8,3.6896 8,3.8l0,2c0,0.1104 0.0896,0.2 0.2,0.2S8.4,5.9104 8.4,5.8l0,2c0,0.1104 0.0896,0.2 0.2,0.2s0.2,-0.0896 0.2,-0.2l0,-2l0.4,0l0,2c0,0.1104 0.0896,0.2 0.2,0.2s0.2,-0.0896 0.2,-0.2l0,-2c0,0.1104 0.0896,0.2 0.2,0.2S10,5.9104 10,5.8l0,-2C10,3.6896 9.9104,3.6 9.8,3.6z" id="path_0"/><path fill="#000" d="M7.5,14.941l-0.4,-0.495c-0.973,-1.189 -4.9,-6.556 -4.9,-9.16A5.066,5.066 0,0 1,7.036 0q0.222,-0.01 0.445,0a5.066,5.066 0,0 1,5.286 4.836q0.01,0.225 0,0.45c0,2.213 -2.669,6.111 -4.678,8.851ZM7.481,0.986a4.077,4.077 0,0 0,-4.3 4.3c0,1.832 2.759,6.038 4.286,8.034 1.25,-1.71 4.315,-5.989 4.315,-8.034a4.077,4.077 0,0 0,-4.3 -4.3Z" id="path_1"/></svg>