<svg id="vector" xmlns="http://www.w3.org/2000/svg" viewBox="0 0 15 15"><path fill="#000" d="M8.8,3.6L6,3.6C5.7791,3.6 5.6,3.4209 5.6,3.2L5.6,2.2C5.6,2.0896 5.6896,2 5.8,2S6,2.0896 6,2.2L6,2.8l0.4,0L6.4,2.4c0,-0.2209 0.1791,-0.4 0.4,-0.4s0.4,0.1791 0.4,0.4l0,0.4l0.4,0L7.6,2.4c0,-0.2209 0.1791,-0.4 0.4,-0.4s0.4,0.1791 0.4,0.4l0,0.4l0.4,0L8.8,2.2C8.8,2.0896 8.8896,2 9,2S9.2,2.0896 9.2,2.2L9.2,3.2C9.2,3.4209 9.0209,3.6 8.8,3.6zM10,7.8c0,0.1104 -0.0896,0.2 -0.2,0.2l-4.8,0C4.8896,8 4.8,7.9104 4.8,7.8S4.8896,7.6 5,7.6L5.2,7.6c0.2209,0 0.4,-0.1791 0.4,-0.4c0,0 0.4,-2.4 0.4,-2.8c0,-0.2209 0.1791,-0.4 0.4,-0.4l2,0c0.2209,0 0.4,0.1791 0.4,0.4c0,0.4 0.4,2.8 0.4,2.8c0,0.2209 0.1791,0.4 0.4,0.4l0.2,0c0.1089,-0 0.1978,0.0871 0.2,0.196L10,7.8zM8,6.2C8,5.8686 7.7314,5.6 7.4,5.6S6.8,5.8686 6.8,6.2L6.8,7.6l1.2,0L8,6.2z" id="path_0"/><path fill="#000" d="M7.5,14.941l-0.4,-0.495c-0.973,-1.189 -4.9,-6.556 -4.9,-9.16A5.066,5.066 0,0 1,7.036 0q0.222,-0.01 0.445,0a5.066,5.066 0,0 1,5.286 4.836q0.01,0.225 0,0.45c0,2.213 -2.669,6.111 -4.678,8.851ZM7.481,0.986a4.077,4.077 0,0 0,-4.3 4.3c0,1.832 2.759,6.038 4.286,8.034 1.25,-1.71 4.315,-5.989 4.315,-8.034a4.077,4.077 0,0 0,-4.3 -4.3Z" id="path_1"/></svg>