<svg id="vector" xmlns="http://www.w3.org/2000/svg" viewBox="0 0 15 15"><path fill="#000" d="M10,2.4l0,4.8L4.8,7.2L4.8,5.488c0.0006,-0.0568 0.0254,-0.1106 0.068,-0.148l1.2,-1.288c0.083,-0.0729 0.2094,-0.0647 0.2822,0.0182C6.3827,4.1072 6.4004,4.1548 6.4,4.204l0,1.2l1.264,-1.348c0.081,-0.0751 0.2075,-0.0704 0.2826,0.0106C7.9813,4.104 8.0004,4.1531 8,4.204L8,6.4l1.2,0L9.2,2.4L10,2.4z" id="path_0"/><path fill="#000" d="M7.5,14.941l-0.4,-0.495c-0.973,-1.189 -4.9,-6.556 -4.9,-9.16A5.066,5.066 0,0 1,7.036 0q0.222,-0.01 0.445,0a5.066,5.066 0,0 1,5.286 4.836q0.01,0.225 0,0.45c0,2.213 -2.669,6.111 -4.678,8.851ZM7.481,0.986a4.077,4.077 0,0 0,-4.3 4.3c0,1.832 2.759,6.038 4.286,8.034 1.25,-1.71 4.315,-5.989 4.315,-8.034a4.077,4.077 0,0 0,-4.3 -4.3Z" id="path_1"/></svg>