<svg id="vector" xmlns="http://www.w3.org/2000/svg" viewBox="0 0 15 15"><path fill="#000" d="M10.5,4.625c0.0057,-0.3431 -0.1899,-0.6579 -0.5,-0.805C9.9738,3.4953 9.7007,3.2463 9.375,3.25c-0.0494,0.0039 -0.0981,0.0141 -0.145,0.03c-0.0303,-0.33 -0.3225,-0.5729 -0.6524,-0.5426C8.4482,2.7494 8.3263,2.8029 8.23,2.89l0,0c0,-0.3452 -0.2798,-0.625 -0.625,-0.625S6.98,2.5448 6.98,2.89C6.98,2.89 7,2.9 7,2.915C6.7443,2.6957 6.3592,2.7252 6.1398,2.9809C6.0658,3.0673 6.0174,3.1725 6,3.285C5.9208,3.2597 5.838,3.248 5.755,3.25C5.3408,3.2466 5.0022,3.5795 4.9987,3.9937C4.9979,4.0936 5.017,4.1926 5.055,4.285C4.6588,4.3958 4.4273,4.8068 4.5381,5.203C4.6082,5.4539 4.8042,5.6499 5.055,5.72c0.1267,0.3914 0.5467,0.6061 0.9381,0.4795C6.2608,6.1129 6.4569,5.8829 6.5,5.605C6.5915,5.6846 6.7046,5.7351 6.825,5.75l0,2.5L6,8.75l2.5,0l-0.8,-0.5l0,-1c0.369,-0.4457 0.8457,-0.79 1.385,-1c0.4006,0.094 0.8015,-0.1546 0.8954,-0.5551C9.9946,5.6343 10.0012,5.5722 10,5.51c0.0014,-0.0267 0.0014,-0.0534 0,-0.08C10.3101,5.2829 10.5056,4.9682 10.5,4.625zM7.7,6.88L7.7,5.16C7.8351,5.4004 8.0893,5.5493 8.365,5.55l0.14,0c0.0078,0.2195 0.1121,0.4245 0.285,0.56C8.3822,6.297 8.0126,6.5581 7.7,6.88z" id="path_0"/><path fill="#000" d="M7.5,14.941l-0.4,-0.495c-0.973,-1.189 -4.9,-6.556 -4.9,-9.16A5.066,5.066 0,0 1,7.036 0q0.222,-0.01 0.445,0a5.066,5.066 0,0 1,5.286 4.836q0.01,0.225 0,0.45c0,2.213 -2.669,6.111 -4.678,8.851ZM7.481,0.986a4.077,4.077 0,0 0,-4.3 4.3c0,1.832 2.759,6.038 4.286,8.034 1.25,-1.71 4.315,-5.989 4.315,-8.034a4.077,4.077 0,0 0,-4.3 -4.3Z" id="path_1"/></svg>