<svg id="vector" xmlns="http://www.w3.org/2000/svg" viewBox="0 0 15 15"><path fill="#000" d="M9.8547,3.5998l-0.6555,0L9.1992,2.5443C9.1992,2.4646 9.1346,2.4 9.0548,2.4l0,0l-0.1112,0c-0.0797,0 -0.1444,0.0646 -0.1444,0.1444l0,0l0,1.0554L8.144,3.5998c-0.0797,0 -0.1444,0.0646 -0.1444,0.1444l0,0l0,0l0,2.2552l-1.4548,0c-0.0802,0 -0.1452,0.065 -0.1452,0.1452l0,1.3098c0.0002,0.08 0.0651,0.1448 0.1452,0.1448l3.3099,0c0.0797,0 0.1444,-0.0646 0.1444,-0.1444l0,0L9.9991,3.744c0,-0.0797 -0.0646,-0.1444 -0.1444,-0.1444l0,0L9.8547,3.5998zM7.1996,6.7992l-0.4,0l0,-0.4l0.4,0L7.1996,6.7992zM7.9996,6.7992l-0.4,0l0,-0.4l0.4,0L7.9996,6.7992zM8.7996,6.7992l-0.4,0l0,-0.4l0.4,0L8.7996,6.7992zM8.7996,5.9992l-0.4,0l0,-0.4l0.4,0L8.7996,5.9992zM8.7996,5.1992l-0.4,0l0,-0.4l0.4,0L8.7996,5.1992zM8.7996,4.3992l-0.4,0l0,-0.4l0.4,0L8.7996,4.3992zM9.5996,6.7988l-0.4,0l0,-0.4l0.4,0L9.5996,6.7988zM9.5996,5.9988l-0.4,0l0,-0.4l0.4,0L9.5996,5.9988zM9.5996,5.1988l-0.4,0l0,-0.4l0.4,0L9.5996,5.1988zM9.5996,4.3988l-0.4,0l0,-0.4l0.4,0L9.5996,4.3988zM7.5995,2.5443C7.5995,2.4646 7.5348,2.4 7.4551,2.4L6.544,2.4C6.4643,2.4 6.3996,2.4646 6.3996,2.5444l0,0L6.3996,3.2L5.744,3.2C5.6646,3.2002 5.6002,3.2646 5.6,3.344l0,0l0,0.2558L4.9443,3.5998C4.8647,3.5998 4.8001,3.6643 4.8,3.744l0,0l0,3.7106c0,0.0797 0.0646,0.1444 0.1444,0.1444l1.0554,0L5.9998,5.5994l1.5997,0L7.5995,2.5443zM5.6,6.7992L5.2,6.7992l0,-0.4l0.4,0L5.6,6.7992zM5.6,5.9992L5.2,5.9992l0,-0.4l0.4,0L5.6,5.9992zM5.6,5.1992L5.2,5.1992l0,-0.4l0.4,0L5.6,5.1992zM5.6,4.3992L5.2,4.3992l0,-0.4l0.4,0L5.6,4.3992zM6.4,5.1992L6,5.1992l0,-0.4l0.4,0L6.4,5.1992zM6.4,4.3992L6,4.3992l0,-0.4l0.4,0L6.4,4.3992zM7.2,5.1992L6.8,5.1992l0,-0.4l0.4,0L7.2,5.1992zM7.2,4.3992L6.8,4.3992l0,-0.4l0.4,0L7.2,4.3992zM7.2,3.5992L6.8,3.5992L6.8,3.2l0.4,0l0,0.4L7.2,3.5992z" id="path_0"/><path fill="#000" d="M7.5,14.941l-0.4,-0.495c-0.973,-1.189 -4.9,-6.556 -4.9,-9.16A5.066,5.066 0,0 1,7.036 0q0.222,-0.01 0.445,0a5.066,5.066 0,0 1,5.286 4.836q0.01,0.225 0,0.45c0,2.213 -2.669,6.111 -4.678,8.851ZM7.481,0.986a4.077,4.077 0,0 0,-4.3 4.3c0,1.832 2.759,6.038 4.286,8.034 1.25,-1.71 4.315,-5.989 4.315,-8.034a4.077,4.077 0,0 0,-4.3 -4.3Z" id="path_1"/></svg>