<svg id="vector" xmlns="http://www.w3.org/2000/svg" viewBox="0 0 15 15"><path fill="#000" d="M5.8,2l-0.4,2.2c-0.0586,0.322 0.7126,0.4724 0.7,0.8L6,7.6c-0.0154,0.3997 0.4,0.4 0.4,0.4s0.4154,-0.0003 0.4,-0.4L6.7,5c-0.0126,-0.327 0.6934,-0.4723 0.7,-0.8L7,2L6.8,2l0.1,1.6L6.6,3.8L6.5,2l-0.2,0L6.2,3.8L5.9,3.6L6,2L5.8,2zM9.2,2c-0.2946,0 -0.7857,0.262 -0.982,0.6547C8.0543,2.9492 8,3.6073 8,4l0,1c0,0.3273 0.4364,0.4 0.6,0.4L8.4,7.6c-0.0362,0.3984 0.4,0.4 0.4,0.4s0.4,0 0.4,-0.4L9.2,2z" id="path_0"/><path fill="#000" d="M7.5,14.941l-0.4,-0.495c-0.973,-1.189 -4.9,-6.556 -4.9,-9.16A5.066,5.066 0,0 1,7.036 0q0.222,-0.01 0.445,0a5.066,5.066 0,0 1,5.286 4.836q0.01,0.225 0,0.45c0,2.213 -2.669,6.111 -4.678,8.851ZM7.481,0.986a4.077,4.077 0,0 0,-4.3 4.3c0,1.832 2.759,6.038 4.286,8.034 1.25,-1.71 4.315,-5.989 4.315,-8.034a4.077,4.077 0,0 0,-4.3 -4.3Z" id="path_1"/></svg>